<svg width="33" height="32" viewBox="0 0 33 32" fill="none" xmlns="http://www.w3.org/2000/svg">
<g id="vuesax/bulk/coffee">
<g id="coffee">
<path id="Vector" opacity="0.6" d="M24.0533 13.96V16H3V13.96C3 10.8667 5.52 8.34668 8.61333 8.34668H18.44C21.5333 8.34668 24.0533 10.8667 24.0533 13.96Z" fill="#292D32"/>
<path id="Vector_2" opacity="0.4" d="M24.0533 16V23.72C24.0533 26.8133 21.5333 29.3333 18.44 29.3333H8.61333C5.52 29.3333 3 26.8133 3 23.72V16H24.0533Z" fill="#292D32"/>
<path id="Vector_3" d="M7.66602 6.8265C7.11935 6.8265 6.66602 6.37316 6.66602 5.8265V3.49316C6.66602 2.9465 7.11935 2.49316 7.66602 2.49316C8.21268 2.49316 8.66602 2.9465 8.66602 3.49316V5.8265C8.66602 6.3865 8.21268 6.8265 7.66602 6.8265Z" fill="#292D32"/>
<path id="Vector_4" d="M13 6.8265C12.4533 6.8265 12 6.37316 12 5.8265V3.49316C12 2.9465 12.4533 2.49316 13 2.49316C13.5467 2.49316 14 2.9465 14 3.49316V5.8265C14 6.3865 13.5467 6.8265 13 6.8265Z" fill="#292D32"/>
<path id="Vector_5" d="M18.333 6.8265C17.7863 6.8265 17.333 6.37316 17.333 5.8265V3.49316C17.333 2.9465 17.7863 2.49316 18.333 2.49316C18.8797 2.49316 19.333 2.9465 19.333 3.49316V5.8265C19.333 6.3865 18.8797 6.8265 18.333 6.8265Z" fill="#292D32"/>
<path id="Vector_6" d="M29.1994 19.0936C29.1994 21.9602 26.8794 24.2802 24.0127 24.2802V13.8936C26.866 13.8936 29.1994 16.2269 29.1994 19.0936Z" fill="#292D32"/>
</g>
</g>
</svg>
