<svg width="33" height="32" viewBox="0 0 33 32" fill="none" xmlns="http://www.w3.org/2000/svg">
<g id="vuesax/bulk/pet">
<g id="pet">
<path id="Vector" opacity="0.4" d="M26.1061 20.9601C25.3194 16.2534 20.7994 12.4268 16.0261 12.4268C10.8394 12.4268 6.27939 16.6268 5.83939 21.8001C5.66606 23.8001 6.30606 25.6934 7.62606 27.1201C8.93272 28.5468 10.7727 29.3334 12.7727 29.3334H19.0127C21.2661 29.3334 23.2394 28.4534 24.5861 26.8668C25.9327 25.2801 26.4661 23.1734 26.1061 20.9601Z" fill="#292D32"/>
<path id="Vector_2" d="M14.3725 10.4798C16.5301 10.4798 18.2792 8.73076 18.2792 6.57317C18.2792 4.41558 16.5301 2.6665 14.3725 2.6665C12.2149 2.6665 10.4658 4.41558 10.4658 6.57317C10.4658 8.73076 12.2149 10.4798 14.3725 10.4798Z" fill="#292D32"/>
<path id="Vector_3" d="M23.2524 12.0399C25.0491 12.0399 26.5057 10.5833 26.5057 8.78654C26.5057 6.98977 25.0491 5.5332 23.2524 5.5332C21.4556 5.5332 19.999 6.98977 19.999 8.78654C19.999 10.5833 21.4556 12.0399 23.2524 12.0399Z" fill="#292D32"/>
<path id="Vector_4" d="M28.0658 17.24C29.5018 17.24 30.6658 16.076 30.6658 14.64C30.6658 13.2041 29.5018 12.04 28.0658 12.04C26.6299 12.04 25.4658 13.2041 25.4658 14.64C25.4658 16.076 26.6299 17.24 28.0658 17.24Z" fill="#292D32"/>
<path id="Vector_5" d="M5.91935 14.64C7.71612 14.64 9.17268 13.1834 9.17268 11.3866C9.17268 9.58987 7.71612 8.1333 5.91935 8.1333C4.12258 8.1333 2.66602 9.58987 2.66602 11.3866C2.66602 13.1834 4.12258 14.64 5.91935 14.64Z" fill="#292D32"/>
</g>
</g>
</svg>
